<?xml version="1.0" standalone="no"?>
<!DOCTYPE svg PUBLIC "-//W3C//DTD SVG 20010904//EN"
 "http://www.w3.org/TR/2001/REC-SVG-20010904/DTD/svg10.dtd">
<svg version="1.0" xmlns="http://www.w3.org/2000/svg"
 width="597.000000pt" height="800.000000pt" viewBox="0 0 597.000000 800.000000"
 preserveAspectRatio="xMidYMid meet">
<metadata>
Created by potrace 1.15, written by Peter Selinger 2001-2017
</metadata>
<g transform="translate(0.000000,800.000000) scale(0.100000,-0.100000)"
fill="#000000" stroke="none">
<path d="M3521 7958 c7 -38 5 -45 -14 -62 -12 -10 -21 -23 -19 -29 2 -6 -1
-20 -6 -31 -6 -12 -15 -34 -22 -51 -6 -16 -30 -50 -52 -75 -34 -38 -40 -41
-35 -20 21 79 21 78 -1 46 -12 -16 -28 -34 -37 -38 -11 -7 -14 -17 -9 -31 6
-20 4 -20 -22 5 -25 24 -26 30 -16 53 13 29 15 139 3 170 -6 15 -11 6 -20 -40
-7 -33 -16 -70 -21 -83 -14 -32 -12 -39 3 -18 13 18 14 18 21 0 4 -11 3 -20
-4 -22 -21 -7 -40 -34 -40 -56 0 -12 -7 -31 -16 -42 -15 -18 -15 -17 -10 12 3
18 8 43 12 58 5 20 2 26 -10 26 -24 0 -42 -45 -26 -65 8 -10 9 -15 1 -15 -6 0
-11 -11 -11 -25 0 -14 -12 -38 -26 -53 -26 -27 -26 -27 -21 -4 5 23 5 23 -14
6 -17 -16 -19 -16 -19 -1 0 10 -4 17 -10 17 -5 0 -10 -7 -10 -15 0 -7 -6 -18
-13 -22 -8 -4 -16 -16 -20 -26 -10 -27 -36 -32 -53 -11 -10 14 -14 15 -12 4 5
-34 -14 -69 -52 -94 -22 -14 -40 -32 -41 -39 0 -6 -4 -3 -8 8 -7 18 -10 15
-29 -21 -24 -48 -47 -70 -57 -55 -3 6 -22 9 -41 6 -29 -3 -34 -1 -34 15 0 14
-7 20 -21 20 -19 0 -20 4 -15 35 9 44 1 58 -23 46 -16 -9 -18 -5 -17 34 1 64
-20 79 -27 19 -2 -17 -6 -34 -9 -39 -3 -6 -8 -22 -12 -37 -3 -16 -13 -28 -20
-28 -10 0 -14 -14 -14 -49 0 -65 -9 -78 -33 -52 -10 11 -19 27 -19 36 0 9 -5
25 -11 36 -7 14 -7 30 1 53 12 38 5 66 -17 66 -9 0 -13 -6 -10 -14 3 -7 0 -19
-6 -25 -13 -13 -17 -271 -5 -271 5 0 6 -10 4 -22 -3 -13 -5 -28 -5 -34 -1 -6
-12 -16 -26 -22 -21 -10 -25 -9 -26 6 -1 9 -1 20 0 25 0 4 -7 7 -17 7 -15 0
-18 -6 -14 -30 6 -43 -4 -66 -23 -50 -13 10 -15 8 -15 -14 0 -32 -13 -33 -40
-4 -11 12 -20 16 -20 10 0 -8 -28 -12 -94 -12 -52 0 -97 -4 -100 -9 -3 -5 -38
-19 -78 -32 -40 -12 -77 -26 -82 -31 -6 -4 -18 -8 -28 -8 -23 0 -60 -36 -174
-170 -113 -133 -148 -189 -168 -271 -26 -105 -20 -210 19 -386 6 -27 22 -30
28 -5 3 9 5 1 6 -19 1 -37 -19 -66 -39 -54 -5 3 -10 1 -10 -6 0 -8 -4 -8 -13
-1 -7 7 -18 7 -27 2 -12 -7 -12 -11 1 -26 12 -16 12 -17 -3 -12 -16 6 -33 -16
-24 -30 2 -4 -16 -5 -41 -3 l-46 3 7 -34 6 -34 -39 1 c-22 0 -37 2 -35 4 5 6
-17 31 -27 31 -5 0 -9 -7 -9 -15 0 -9 -6 -12 -15 -9 -11 5 -15 -1 -15 -21 0
-24 -3 -26 -29 -20 -37 8 -75 -10 -67 -32 5 -12 4 -13 -7 -5 -10 9 -18 8 -32
-2 -10 -7 -27 -11 -38 -8 -16 4 -19 1 -14 -11 5 -12 1 -17 -12 -17 -10 0 -24
-7 -31 -15 -8 -10 -21 -13 -38 -8 -32 8 -21 -14 14 -28 21 -7 23 -12 15 -28
-8 -14 -17 -18 -33 -13 -20 5 -21 3 -10 -10 13 -16 5 -28 -28 -41 -10 -5 -8
-6 5 -4 17 2 55 -24 55 -38 0 -3 -21 -5 -47 -4 -83 0 -118 -6 -115 -20 2 -9
-4 -12 -22 -7 -15 4 -26 1 -29 -8 -4 -9 -25 -13 -76 -12 -39 1 -71 -2 -71 -5
0 -3 17 -13 37 -23 29 -14 34 -20 22 -27 -14 -9 -12 -10 26 -12 42 -4 29 -25
-30 -51 -6 -3 -4 -9 5 -15 22 -15 5 -24 -35 -17 -38 7 -48 26 -14 26 34 0 16
22 -30 36 l-43 13 23 -25 c19 -20 20 -24 6 -24 -9 0 -17 -4 -17 -10 0 -5 4
-10 10 -10 5 0 7 -7 4 -15 -5 -11 1 -15 18 -15 16 0 24 -6 25 -19 1 -15 -7
-21 -37 -26 -22 -4 -47 -2 -59 4 -28 16 -41 14 -34 -5 5 -14 0 -16 -30 -12
-21 2 -37 2 -37 -2 0 -7 50 -30 66 -30 6 0 17 -6 23 -14 10 -12 5 -14 -26 -12
-21 1 -46 6 -57 11 -23 10 -18 -14 5 -26 8 -4 31 -15 51 -25 21 -10 35 -20 32
-23 -4 -4 -36 -6 -159 -12 -5 0 -21 2 -35 6 l-25 7 25 -22 25 -22 -77 4 c-44
2 -79 -1 -81 -6 -2 -6 -22 -2 -45 7 -52 21 -86 22 -79 4 8 -22 -43 -8 -78 21
l-30 25 -3 -22 c-6 -38 4 -48 57 -55 28 -4 59 -10 68 -13 11 -4 14 -3 9 5 -10
16 6 15 40 -3 16 -8 37 -15 47 -15 9 0 17 -6 17 -12 0 -9 3 -10 8 -2 10 15
106 -36 110 -59 3 -17 -19 -15 -45 6 -7 5 -36 9 -65 10 -29 0 -55 4 -58 8 -3
4 -26 11 -50 14 l-45 7 25 -21 c21 -17 77 -28 114 -22 4 1 13 -2 20 -7 6 -5
24 -12 40 -16 l30 -7 -25 -13 c-20 -11 -30 -10 -58 1 -18 7 -44 13 -56 13 -13
0 -25 4 -27 8 -4 9 -93 62 -105 62 -4 0 -1 -5 7 -11 11 -7 5 -8 -22 -3 -36 6
-52 -6 -28 -21 6 -3 10 -11 10 -16 0 -6 -4 -7 -10 -4 -6 4 -10 -14 -10 -45 0
-43 3 -53 20 -57 11 -3 17 -10 13 -16 -4 -6 0 -8 9 -5 8 4 21 2 29 -4 10 -6 1
-8 -28 -6 l-43 4 0 -278 0 -278 58 -1 c135 -2 277 -6 282 -9 5 -2 45 -6 88 -9
12 0 22 -7 22 -14 0 -10 -20 -13 -82 -11 -44 1 -92 -2 -105 -7 -12 -4 -23 -5
-23 -1 0 5 -54 9 -120 9 l-120 1 0 -54 0 -53 218 -1 c119 0 226 -2 237 -4 11
-3 27 -5 34 -5 10 -1 3 -14 -20 -38 l-34 -37 49 40 c44 35 55 39 105 39 31 0
65 -4 76 -9 28 -13 41 -15 123 -22 39 -4 72 -10 72 -14 0 -4 -15 -12 -32 -18
l-33 -10 35 -2 c166 -10 170 -11 170 -27 0 -7 -8 -13 -17 -14 -13 0 -12 -3 6
-10 16 -6 21 -14 17 -26 -4 -9 -1 -20 6 -25 10 -5 8 -8 -5 -8 -10 0 -16 -4
-12 -10 4 -6 15 -6 30 0 14 5 25 7 25 4 0 -2 9 0 20 6 17 9 20 8 20 -9 0 -12
-12 -27 -27 -35 -16 -8 -22 -15 -14 -16 11 0 9 -5 -5 -22 -10 -12 -13 -18 -6
-14 6 4 12 2 12 -4 0 -6 -7 -13 -15 -16 -8 -4 -15 -11 -15 -16 0 -6 8 -7 17
-3 10 4 24 9 31 12 10 4 12 -4 8 -33 -2 -22 -8 -47 -11 -56 -9 -23 3 -23 27
-1 17 15 20 15 28 3 18 -29 15 -98 -6 -121 -8 -8 -14 -20 -14 -26 0 -6 -6 -16
-14 -22 -8 -7 -12 -21 -8 -33 5 -21 6 -21 13 -2 6 12 7 0 4 -31 -5 -61 -18
-123 -31 -150 -6 -11 -9 -42 -7 -70 2 -27 4 -54 5 -60 0 -5 -6 -25 -13 -43
-11 -25 -11 -37 -1 -52 6 -10 8 -21 3 -24 -9 -6 -21 -78 -27 -155 -2 -24 -5
-50 -8 -58 -6 -15 12 -53 30 -65 6 -4 9 -27 7 -55 -7 -81 -3 -106 17 -120 24
-17 25 -32 3 -48 -18 -13 -10 -35 13 -35 8 0 14 -6 14 -13 0 -18 23 -67 32
-67 12 0 58 -47 58 -59 0 -6 -8 -11 -17 -11 -15 -1 -15 -3 5 -19 12 -11 22
-27 22 -35 0 -9 8 -20 18 -23 24 -9 31 -23 27 -55 -3 -21 1 -31 13 -35 9 -4
27 -16 38 -27 l21 -21 -24 -52 c-28 -59 -18 -55 -248 -107 -117 -27 -229 -56
-310 -79 -22 -6 -44 -12 -50 -12 -5 -1 -21 -7 -35 -15 -14 -7 -27 -13 -30 -13
-3 0 -9 -1 -15 -3 -5 -1 -26 -5 -45 -8 -31 -4 -215 -53 -215 -56 0 -1 -10 -3
-22 -4 -13 -2 -31 -10 -41 -19 -10 -9 -23 -17 -29 -17 -6 0 -14 -10 -18 -22
-11 -35 -14 -78 -4 -78 5 0 5 -7 2 -17 -4 -10 -2 -14 5 -9 7 4 10 -1 7 -14 -2
-11 2 -20 8 -20 7 0 6 -4 -3 -10 -8 -5 -10 -10 -5 -10 6 0 12 -11 13 -25 1
-14 -3 -25 -8 -25 -6 0 -10 -5 -10 -11 0 -6 6 -9 14 -6 18 7 36 -12 36 -37 0
-19 -1 -19 -13 -2 -11 15 -15 15 -23 4 -17 -21 -24 -48 -13 -48 6 0 7 -5 3
-11 -4 -8 -9 -7 -15 2 -8 11 -12 11 -23 -4 -7 -9 -19 -17 -25 -17 -7 0 -9 -4
-6 -10 3 -5 1 -10 -4 -10 -6 0 -11 4 -11 8 0 4 -9 8 -19 8 -11 0 -18 -4 -15
-7 2 -4 0 -10 -6 -14 -5 -3 -10 -1 -10 4 0 6 -5 11 -11 11 -6 0 -9 -7 -6 -15
4 -8 1 -17 -5 -21 -6 -4 -8 -3 -4 4 3 6 1 14 -5 17 -6 4 -13 -2 -16 -14 -6
-25 -20 -27 -45 -4 -17 16 -18 11 -18 -121 l0 -138 34 5 c19 2 38 7 43 10 5 3
43 11 84 16 98 14 96 13 156 41 30 15 50 30 48 37 -4 13 38 40 72 46 10 2 25
7 33 10 22 8 82 27 86 27 14 0 0 -32 -18 -41 l-23 -12 23 -10 c18 -8 27 -6 45
10 19 18 114 41 140 35 4 -1 7 3 7 8 0 7 6 7 19 0 28 -15 41 -12 41 8 0 9 4
13 8 7 4 -5 14 -10 22 -10 8 0 18 5 22 10 5 6 8 5 8 -4 0 -11 3 -11 15 -1 8 7
15 9 15 5 0 -4 7 -2 15 5 8 7 22 10 30 6 19 -7 20 -35 1 -42 -8 -3 -11 -15 -8
-30 4 -25 -12 -34 -21 -11 -3 7 -6 5 -6 -5 -1 -10 -7 -18 -13 -18 -7 0 -26
-14 -42 -30 -16 -16 -33 -27 -37 -24 -5 3 -9 -3 -10 -13 -1 -13 -3 -11 -9 7
-8 24 -8 24 -9 3 -1 -14 9 -29 24 -39 14 -9 22 -20 19 -25 -8 -14 -26 -11 -19
4 4 6 -3 1 -14 -12 -23 -25 -27 -46 -11 -56 15 -9 -1 -37 -18 -30 -8 3 -22 0
-30 -7 -13 -11 -15 -10 -10 2 4 11 0 16 -13 16 -22 0 -25 -12 -6 -19 7 -4 6
-6 -4 -6 -9 -1 -19 6 -23 14 -7 19 -40 19 -60 0 -9 -9 -17 -11 -21 -5 -7 11
-65 1 -81 -14 -18 -19 -24 -46 -14 -71 6 -16 6 -25 0 -25 -6 0 -10 5 -10 11 0
5 -5 7 -10 4 -15 -9 -32 5 -22 18 5 7 12 20 15 29 5 15 4 16 -13 5 -11 -6 -20
-16 -20 -22 0 -5 -4 -4 -9 4 -6 9 -15 11 -27 6 -11 -5 -23 -7 -28 -6 -9 2 -26
-18 -26 -30 0 -4 7 -6 16 -5 9 0 19 -5 22 -13 3 -10 0 -12 -12 -8 -9 4 -16 2
-16 -3 0 -33 -17 -60 -38 -60 -16 1 -16 1 0 14 16 12 16 14 -8 35 l-26 22 7
-21 7 -22 -22 22 c-23 23 -36 21 -26 -5 3 -9 10 -13 16 -10 6 4 7 -1 3 -11 -4
-11 -3 -15 5 -10 6 3 13 2 16 -3 3 -5 -8 -8 -24 -7 -17 1 -30 -3 -30 -8 0 -6
-5 -4 -10 4 -6 10 -10 11 -10 3 0 -9 -18 -12 -60 -9 -51 2 -60 0 -57 -13 2 -9
9 -15 15 -13 12 2 15 -8 13 -43 -1 -13 1 -16 6 -8 5 6 22 15 38 19 36 8 32 3
-13 -20 -32 -16 -33 -16 -42 6 -8 20 -9 21 -9 4 -1 -20 -1 -20 -15 0 -15 19
-15 19 -29 0 -9 -13 -21 -17 -35 -14 l-21 6 -1 -348 c0 -341 0 -349 20 -354
11 -3 30 -9 41 -12 12 -3 19 -2 16 2 -3 5 6 9 19 9 21 0 28 -10 26 -35 0 -3 7
-6 17 -7 10 -1 18 4 18 12 0 7 -6 11 -14 8 -7 -3 -13 -1 -13 5 0 5 7 13 16 16
22 9 24 8 24 -10 0 -14 1 -14 16 0 19 20 33 20 40 1 4 -8 9 -13 13 -10 15 9
65 14 75 7 16 -10 36 -14 83 -17 24 -2 48 -7 55 -11 10 -6 132 -16 205 -16 13
0 21 -4 18 -8 -3 -5 4 -6 15 -3 11 3 17 10 13 17 -5 8 -3 8 8 -1 8 -6 30 -14
49 -18 19 -3 44 -8 55 -10 11 -2 20 -4 20 -5 0 -3 51 -8 103 -11 37 -1 57 2
62 12 9 14 25 6 25 -14 1 -7 7 -10 15 -8 19 4 29 4 57 -3 13 -2 23 -1 23 5 0
15 42 10 62 -8 13 -12 18 -13 18 -3 0 7 3 10 7 7 3 -4 12 1 18 10 11 15 15 15
29 4 19 -16 86 -26 86 -12 0 5 7 11 15 15 8 3 14 0 12 -7 -2 -14 33 -17 50 -5
7 6 18 2 30 -11 20 -21 79 -24 91 -5 4 6 15 10 25 8 9 -1 17 3 17 9 0 7 5 4
11 -5 12 -22 54 -25 46 -3 -4 10 4 16 28 21 28 5 38 2 58 -20 26 -28 52 -34
60 -13 4 9 7 9 15 -1 6 -10 15 -10 36 -2 19 7 33 7 46 0 15 -8 24 -6 40 10 11
11 20 24 20 29 0 6 9 9 19 8 11 0 17 -5 15 -9 -3 -4 2 -8 11 -8 9 0 13 -5 10
-10 -3 -6 -1 -10 5 -10 6 0 8 -4 5 -10 -3 -5 -1 -10 4 -10 6 0 11 7 11 16 0
12 5 14 18 9 9 -4 25 -7 35 -7 10 0 15 -4 11 -10 -4 -6 2 -6 15 1 13 7 21 8
21 2 0 -7 322 -10 931 -11 634 0 928 3 924 10 -9 15 5 51 16 44 6 -3 8 -12 5
-20 -3 -8 -1 -14 5 -14 6 0 7 -4 4 -10 -4 -7 122 -10 370 -10 325 0 376 2 381
15 4 9 19 15 38 15 18 0 36 3 39 6 14 14 114 43 149 44 20 0 40 5 43 10 4 7
24 8 51 4 29 -4 49 -2 59 6 9 8 15 8 15 2 0 -11 35 -21 97 -27 21 -2 58 -8 83
-14 59 -14 58 -14 63 7 4 13 5 11 6 -5 1 -15 7 -23 19 -23 10 0 35 -9 57 -20
22 -11 59 -20 85 -20 l45 0 -33 20 c-18 11 -45 21 -60 22 -15 2 -42 13 -61 25
-19 13 -40 23 -47 23 -11 0 -79 35 -134 70 -8 5 -49 28 -90 51 -41 23 -82 48
-91 55 -9 8 -41 21 -73 29 -73 19 -132 50 -146 75 -6 11 -20 20 -30 20 -11 0
-20 5 -20 12 0 6 -3 9 -6 6 -10 -11 -58 21 -60 40 -5 28 80 56 89 29 2 -6 3
-4 2 5 -2 10 3 22 11 29 10 8 14 8 14 1 0 -7 21 -10 56 -9 53 2 57 4 75 37 10
19 18 30 19 23 0 -11 69 -37 77 -29 6 6 -9 36 -17 36 -5 0 -27 19 -50 42 -34
35 -40 47 -35 68 4 14 8 30 9 37 1 7 5 16 9 19 4 4 7 18 7 31 0 28 16 30 25 3
8 -26 31 -25 46 2 11 20 12 20 24 4 16 -21 24 -10 27 38 3 39 9 44 27 22 11
-13 31 -14 95 -7 4 1 6 10 3 22 -4 14 2 28 17 43 12 11 25 29 29 38 4 11 12
15 21 12 10 -4 17 3 22 21 5 20 1 32 -17 51 -25 26 -27 25 55 29 26 1 51 6 55
12 9 14 43 26 64 24 9 -1 17 3 17 9 0 6 10 10 22 8 18 -3 23 4 33 43 8 30 9
53 2 70 -5 13 -11 45 -13 71 -2 38 0 46 11 41 10 -3 15 1 15 13 0 34 15 47 38
35 21 -11 22 -35 10 -166 -2 -24 1 -30 17 -30 11 -1 23 3 26 8 7 10 69 -31 69
-45 0 -4 6 -8 13 -8 7 0 13 -9 13 -20 0 -12 -6 -20 -16 -19 -32 3 -41 -2 -52
-26 -6 -14 -17 -25 -24 -25 -7 0 -16 -5 -20 -12 -4 -7 -3 -8 4 -4 7 4 12 2 12
-3 0 -6 -5 -11 -11 -11 -7 0 -9 -12 -7 -32 4 -23 0 -36 -14 -48 -18 -15 -18
-16 4 -41 26 -29 67 -54 76 -45 3 4 0 12 -6 18 -29 29 4 31 38 2 9 -7 31 -14
49 -16 18 -1 37 -10 42 -19 5 -11 16 -15 28 -12 16 4 20 13 18 42 -2 34 0 36
31 39 l32 3 0 915 c0 608 -3 913 -10 909 -5 -3 -10 1 -10 9 0 9 -4 16 -10 16
-6 0 -8 -23 -6 -55 5 -66 -1 -95 -21 -95 -8 0 -11 -5 -8 -11 4 -6 2 -29 -3
-52 -6 -23 -13 -69 -16 -102 -3 -33 -5 -60 -6 -61 0 0 -14 2 -31 4 -38 6 -49
-8 -49 -65 0 -31 4 -43 14 -43 10 0 13 -8 11 -22 -23 -163 -28 -181 -60 -212
-21 -21 -30 -39 -27 -52 5 -23 5 -134 -1 -140 -2 -2 -17 -7 -34 -10 -28 -5
-31 -4 -35 24 -3 24 0 33 19 41 28 13 31 55 5 89 l-18 24 -18 -27 c-23 -36
-39 -20 -26 25 6 19 10 49 10 66 0 16 7 39 14 50 14 18 15 18 26 -13 7 -18 16
-33 20 -33 11 0 21 30 14 41 -3 6 -1 16 5 23 6 7 12 41 13 75 2 62 11 79 21
39 5 -18 8 -19 21 -8 9 7 14 22 12 34 -6 31 -43 113 -54 120 -11 6 -32 -44
-32 -76 0 -11 -4 -17 -9 -13 -12 7 -19 -4 -25 -42 -3 -16 -20 -56 -37 -87 -27
-51 -33 -72 -38 -123 -2 -19 -22 -16 -37 5 -12 16 -14 16 -30 0 -15 -15 -16
-21 -6 -43 7 -15 10 -31 6 -36 -8 -14 4 -59 16 -59 6 0 10 18 10 39 0 45 12
58 31 35 10 -12 10 -20 1 -35 -15 -23 -7 -279 10 -369 6 -30 10 -67 10 -81 -2
-19 5 -29 23 -37 24 -11 25 -10 25 18 0 17 5 30 10 30 6 0 10 -18 10 -40 0
-34 -4 -41 -24 -46 -31 -7 -47 2 -39 22 5 14 3 15 -18 4 -14 -8 -24 -9 -26 -3
-2 6 -15 8 -29 5 -23 -4 -25 -2 -23 29 0 19 -2 55 -6 80 -6 40 -4 49 15 67 18
17 23 34 26 84 1 35 4 75 7 89 5 30 -8 69 -23 69 -6 0 -10 -25 -10 -59 0 -32
-7 -75 -15 -94 -8 -20 -15 -48 -15 -62 0 -14 -4 -25 -9 -25 -5 0 -9 -29 -9
-64 0 -76 -9 -109 -28 -102 -18 7 -27 -30 -21 -84 5 -46 -4 -52 -22 -12 l-13
27 -24 -45 c-22 -44 -28 -42 -25 10 1 14 -7 38 -18 52 -12 14 -21 32 -21 38 0
26 -28 -11 -35 -46 -6 -36 -39 -99 -51 -99 -4 0 -8 26 -10 57 -2 40 1 60 12
68 18 16 18 53 -1 89 -8 16 -11 32 -7 35 3 4 0 11 -8 16 -9 6 -17 5 -21 -2
-10 -15 -32 1 -70 51 -48 63 -66 71 -89 44 -25 -31 -30 -29 -30 14 0 34 -2 36
-15 22 -11 -10 -16 -37 -17 -80 -1 -38 -8 -70 -16 -78 -11 -11 -12 -9 -6 13 4
16 2 26 -5 26 -6 0 -11 -5 -11 -11 0 -6 -9 -22 -20 -36 -14 -19 -20 -21 -20
-10 0 27 -33 87 -47 87 -7 0 -13 -8 -13 -18 0 -10 -4 -22 -9 -27 -5 -6 -12
-26 -16 -45 -5 -28 -2 -41 14 -59 12 -13 21 -28 21 -34 0 -5 -9 2 -21 17 -23
29 -47 34 -55 11 -4 -8 -13 -15 -21 -15 -8 0 -11 -4 -8 -10 7 -11 -23 -2 -42
13 -9 7 -13 5 -13 -7 0 -10 -9 -16 -24 -16 -13 0 -26 -6 -29 -14 -7 -18 -45
-17 -52 2 -4 10 0 12 12 8 13 -4 11 0 -6 14 -18 15 -27 18 -37 9 -11 -9 -11
-16 3 -42 8 -17 19 -42 23 -56 4 -14 11 -34 15 -43 13 -33 -13 -18 -36 20 -22
37 -57 71 -72 72 -5 0 -7 -12 -5 -27 2 -22 -1 -28 -15 -26 -19 1 -19 -9 -1
-69 8 -28 -9 -21 -46 18 l-34 37 -8 -28 c-4 -16 -5 -32 -2 -37 3 -4 1 -8 -4
-8 -15 0 -24 33 -11 40 6 4 7 9 2 11 -9 4 -73 101 -73 111 0 3 12 9 26 12 17
5 24 12 20 21 -3 8 -3 22 0 30 5 12 9 13 21 4 17 -15 31 -3 36 31 3 19 9 24
27 22 12 -2 20 1 16 6 -9 15 21 35 43 29 14 -3 18 -1 14 9 -4 10 3 14 21 14
19 0 24 4 20 15 -5 13 -2 14 21 5 37 -14 45 -13 45 8 0 27 11 34 28 19 13 -10
15 -8 9 21 -4 22 -3 31 4 27 21 -13 78 25 87 57 7 29 11 32 52 32 44 1 45 2
45 34 0 17 3 32 7 32 5 0 8 7 8 15 0 8 5 15 10 15 21 0 9 16 -20 27 -38 14
-42 46 -5 37 20 -5 24 -3 19 10 -5 14 2 16 50 16 45 0 58 -4 68 -20 7 -11 21
-20 31 -20 16 0 18 5 13 26 -6 21 -4 25 8 21 18 -7 31 9 16 18 -15 9 -12 35 5
35 15 0 15 47 0 83 -5 11 -3 17 6 17 11 0 11 3 -1 10 -12 8 -9 10 13 10 16 0
26 -4 22 -9 -3 -5 0 -13 6 -17 6 -4 16 1 21 10 8 14 13 15 24 5 8 -6 14 -17
14 -24 0 -7 7 -15 15 -19 19 -7 19 -4 0 41 -21 50 -19 58 10 39 24 -16 25 -15
31 9 6 26 -4 39 -100 117 -12 9 -18 20 -13 24 4 4 19 -3 33 -17 14 -13 33 -23
43 -21 10 1 26 -7 36 -18 10 -11 24 -20 32 -20 7 0 13 -5 13 -12 0 -8 3 -8 9
-3 5 6 7 31 4 57 -4 34 -11 49 -27 57 -19 9 -18 10 7 5 21 -5 27 -2 27 11 0
24 24 13 28 -13 4 -25 27 -46 42 -37 5 3 10 19 10 34 0 27 -8 36 -78 87 -2 1
-4 9 -6 17 -1 8 -10 26 -19 41 -10 15 -15 31 -12 36 11 18 54 -13 77 -56 13
-24 26 -44 29 -44 13 0 27 25 31 53 4 34 22 40 26 9 2 -12 -1 -22 -7 -22 -12
0 -10 -88 3 -108 4 -7 2 -12 -3 -12 -17 0 -13 -40 4 -46 9 -4 15 -19 15 -40 0
-24 5 -34 16 -34 11 0 13 -6 9 -19 -9 -30 11 -34 29 -6 14 21 14 26 3 31 -16
6 -11 48 10 80 8 13 11 32 7 48 -4 16 -2 26 5 26 6 0 11 -9 11 -21 0 -15 4
-19 16 -15 9 3 18 6 20 6 2 0 4 18 4 39 0 22 4 42 9 45 11 7 20 76 9 76 -4 0
-8 5 -8 10 0 6 6 10 14 10 8 0 17 11 20 24 3 14 20 30 42 41 38 18 40 28 18
102 -4 16 -1 23 15 28 16 5 20 14 19 43 -1 35 -10 51 -60 100 -10 9 -18 22
-18 29 0 7 -11 29 -25 49 -14 20 -25 45 -25 55 0 10 -5 21 -11 24 -7 5 -3 15
11 30 l22 23 -29 14 c-30 14 -73 82 -59 95 4 4 23 -10 42 -31 20 -24 34 -33
34 -24 0 9 6 21 14 27 11 10 17 8 29 -9 8 -12 13 -30 10 -40 -3 -11 4 -35 14
-53 11 -18 28 -57 38 -86 12 -38 24 -55 43 -62 16 -6 29 -6 35 0 5 5 16 7 23
4 21 -8 21 -8 -20 119 -13 40 -13 46 0 41 8 -3 14 -9 14 -13 0 -4 11 -5 24 -3
22 5 24 9 20 54 -2 29 -10 56 -20 66 -13 13 -14 18 -3 22 7 2 15 -1 17 -7 5
-17 42 -15 48 3 4 8 10 12 15 9 14 -8 10 -24 -6 -24 -15 0 -20 -12 -9 -23 10
-10 36 22 31 37 -3 7 0 19 6 25 8 8 3 19 -19 42 -30 33 -24 35 29 14 16 -7 17
-2 13 51 -2 33 -9 74 -15 93 -14 46 -7 50 27 18 18 -17 32 -23 41 -18 19 12
-50 79 -85 83 -15 2 -29 8 -31 14 -6 18 33 23 55 8 16 -11 62 -10 62 3 0 16
-56 73 -71 73 -21 0 -26 16 -6 23 6 3 1 5 -13 6 -14 0 -34 -4 -45 -8 -19 -8
-19 -8 4 -16 24 -7 24 -8 6 -21 -28 -21 -42 -17 -57 13 -13 27 -15 28 -98 27
-47 -1 -103 -3 -125 -4 -22 -2 -49 -2 -60 -1 -45 3 11 21 67 21 83 0 157 18
154 36 -1 9 -9 19 -16 24 -21 13 -6 22 24 14 21 -5 24 -9 16 -20 -17 -19 35
-42 85 -38 22 1 43 3 48 3 17 2 4 22 -36 55 l-43 35 -66 -10 c-37 -6 -82 -9
-100 -7 -33 4 -33 4 12 15 l45 11 -40 3 c-22 1 -47 3 -55 5 -8 1 -23 2 -33 3
-10 1 -16 5 -12 10 3 5 0 13 -6 16 -5 4 -8 13 -5 21 3 8 -1 17 -9 20 -30 12
-13 19 46 20 42 1 65 6 77 17 15 16 15 17 -5 17 -11 0 -26 6 -32 14 -10 12 -8
17 8 25 11 6 26 11 33 11 14 1 58 34 58 44 0 3 -12 6 -26 6 -14 0 -32 6 -39
14 -22 21 18 28 60 10 19 -8 42 -14 52 -13 14 0 14 2 3 6 -8 2 -25 9 -37 15
-20 10 -21 11 -4 29 11 12 30 18 54 17 53 -2 56 8 5 16 -27 4 -58 1 -83 -9
-51 -18 -89 -19 -82 -2 3 9 -7 12 -34 12 -23 0 -46 7 -56 17 -15 16 -15 18 13
29 27 12 28 13 7 16 -13 3 -23 11 -23 18 0 9 -6 12 -15 9 -8 -4 -22 -3 -31 0
-14 5 -14 8 2 23 19 19 21 20 59 22 14 0 25 6 25 12 0 7 -32 8 -97 4 -85 -5
-95 -4 -75 7 21 13 21 14 -25 28 l-48 14 60 7 c33 3 74 11 90 17 29 10 29 10
5 12 -14 1 -29 2 -33 1 -4 -1 -35 -3 -68 -4 -33 -2 -64 -8 -67 -13 -11 -16
-41 -24 -47 -14 -4 6 1 10 9 10 25 0 14 24 -14 32 -16 5 -6 6 26 4 42 -2 53 1
63 17 15 23 15 22 -29 36 -28 8 -19 9 50 5 79 -6 84 -5 70 10 -9 11 -22 15
-36 12 -13 -4 -26 -1 -30 5 -4 8 -31 9 -84 5 -61 -6 -79 -4 -89 7 -6 8 -21 13
-31 10 -11 -3 -39 3 -62 12 -24 10 -63 19 -87 21 -78 5 -73 24 6 23 39 -1 79
3 88 8 10 6 49 8 88 5 46 -3 68 -1 64 5 -7 11 -88 36 -119 37 -9 1 -20 4 -24
9 -4 4 -18 7 -30 7 -12 0 -29 7 -38 15 -8 8 -19 15 -25 15 -6 0 -11 7 -11 16
0 10 6 13 18 10 9 -3 49 -10 88 -16 40 -5 106 -23 148 -39 55 -21 76 -26 76
-16 0 14 -66 49 -112 60 -16 4 -28 11 -28 15 0 4 -35 10 -77 14 -83 7 -126 26
-59 26 l39 0 -25 19 c-19 15 -34 18 -66 14 -24 -3 -45 -9 -47 -13 -8 -13 -99
3 -118 21 -18 17 -18 17 13 24 19 4 36 3 43 -4 15 -15 42 -14 56 3 7 8 22 11
38 8 18 -3 24 -1 19 7 -4 6 -14 11 -23 11 -18 0 -65 35 -57 43 3 3 18 2 32 -2
15 -5 47 -5 72 -1 44 6 44 7 15 14 -46 12 -85 28 -85 35 0 9 -84 31 -119 31
-16 0 -31 6 -35 15 -3 8 -16 15 -28 15 -29 0 -54 15 -40 24 6 3 18 3 28 -1 11
-4 15 -3 11 4 -4 6 10 15 35 21 34 9 49 7 90 -9 27 -10 63 -19 81 -19 18 0 40
-6 49 -14 15 -11 9 -12 -37 -9 -101 6 -42 -33 80 -53 l30 -5 -24 20 c-20 18
-21 21 -5 21 10 0 30 -12 45 -26 19 -18 41 -27 82 -31 37 -4 62 -12 73 -24 10
-11 27 -19 38 -19 22 0 56 -20 88 -52 23 -23 34 -23 52 4 13 18 18 19 31 8 8
-7 15 -18 15 -25 0 -12 42 -52 102 -98 l23 -18 -27 6 c-43 9 -33 -1 28 -29 64
-30 84 -32 84 -12 0 19 -39 86 -50 86 -4 0 -10 9 -13 20 -4 16 0 20 19 20 13
0 24 5 24 10 0 6 -11 10 -24 10 -13 0 -36 10 -51 22 l-28 22 24 9 c30 12 95
10 117 -3 13 -7 8 -9 -22 -10 -33 0 -37 -2 -26 -15 7 -8 28 -15 47 -15 31 0
35 3 30 21 -4 14 1 22 16 28 19 7 17 9 -17 21 -30 9 -37 16 -33 31 4 14 -4 23
-29 35 -19 9 -34 20 -34 25 0 15 97 105 127 118 17 7 40 25 52 41 l21 30 -38
6 c-90 14 -81 45 11 36 57 -5 61 -4 48 11 -11 14 -11 20 -1 32 18 21 7 40 -42
72 -24 15 -70 48 -102 73 -38 29 -61 41 -63 33 -7 -19 -30 -16 -52 8 -16 18
-19 31 -14 83 3 33 9 69 14 78 5 9 9 25 9 35 0 21 63 183 85 217 7 11 16 37
20 56 4 19 14 56 22 82 12 38 13 56 3 95 -6 26 -14 61 -17 78 -7 33 -19 55
-83 145 -73 104 -176 198 -268 247 -61 32 -63 33 -89 16 -26 -17 -26 -17 -21
4 9 33 -27 41 -56 14 -28 -26 -40 -27 -24 -1 16 25 5 35 -37 32 -34 -3 -46 10
-23 24 15 10 -27 25 -47 18 -8 -3 -24 1 -36 9 -12 9 -28 13 -35 10 -8 -3 -20
0 -28 6 -7 6 -21 9 -30 5 -9 -3 -16 -1 -16 5 0 6 5 11 10 11 6 0 10 11 10 25
0 14 -3 25 -7 25 -4 0 -27 -19 -50 -42 -24 -23 -43 -37 -43 -31 0 7 5 15 10
18 24 15 9 32 -27 31 -26 -1 -38 -7 -43 -21 -4 -11 -9 -14 -13 -8 -4 6 0 24 8
39 8 16 15 37 15 47 0 11 9 21 19 24 12 3 17 11 14 19 -6 16 -43 1 -43 -18 0
-6 -12 -26 -26 -45 -17 -22 -23 -40 -19 -53 4 -11 2 -20 -4 -20 -6 0 -11 7
-11 16 0 14 -3 14 -15 4 -15 -12 -16 -11 -19 13 -1 7 -12 11 -28 9 l-28 -3 21
63 c12 35 29 79 37 98 9 19 18 40 21 45 2 6 -6 1 -18 -9 -21 -19 -21 -19 -21
5 0 19 -2 21 -10 9 -5 -8 -8 -33 -6 -55 2 -22 2 -32 -1 -22 -2 9 -8 17 -11 17
-13 -1 -42 -27 -42 -38 0 -7 -12 -19 -26 -28 -34 -23 -51 -5 -56 58 -5 54 -18
77 -18 30 0 -41 -17 -50 -25 -12 -8 36 0 50 26 50 25 0 25 29 -2 74 -11 19
-19 46 -18 58 4 32 -10 55 -22 37 -5 -8 -9 -24 -9 -36 0 -27 -15 -30 -29 -5
-11 18 -13 13 -15 -33 -1 -11 -5 -22 -11 -25 -19 -9 -16 57 4 118 24 69 25 82
11 82 -5 0 -10 -12 -10 -27 0 -16 -4 -34 -9 -42 -12 -19 -35 23 -27 53 7 30
-3 66 -20 66 -9 0 -14 -12 -14 -35 0 -19 5 -35 11 -35 6 0 8 -7 5 -16 -4 -9
-1 -32 6 -50 9 -27 9 -38 -2 -59 -19 -36 -27 -17 -35 89 -4 50 -14 104 -22
119 -8 15 -11 37 -7 49 4 15 2 19 -7 16 -8 -3 -15 -13 -17 -24 -2 -10 -5 -26
-8 -34 -8 -24 -20 4 -34 78 -8 48 -8 67 0 77 13 15 4 79 -9 70 -5 -2 -12 -31
-16 -62 -9 -77 -12 -94 -19 -101 -5 -5 -8 13 -10 68 0 8 4 42 8 74 6 44 10 56
18 45 8 -11 9 -10 4 4 -3 10 -7 37 -7 60 -1 28 -3 34 -6 17 -3 -14 -10 -31
-16 -38 -6 -8 -14 -32 -18 -55 l-6 -42 -2 38 c-1 42 -12 47 -34 15 -20 -31
-27 -21 -20 30 6 47 15 53 31 20 8 -18 9 -5 5 52 -3 41 -9 91 -13 110 l-8 35
-1 -42 c-1 -49 -10 -75 -22 -67 -5 3 -12 -2 -15 -10 -12 -31 -22 -15 -18 27 2
23 1 36 -2 29 -12 -26 -21 0 -13 40 4 24 8 47 9 51 0 5 5 5 10 2 6 -4 9 7 9
27 -1 23 -3 26 -6 11 -2 -13 -9 -23 -14 -23 -15 0 2 82 22 112 25 35 25 57 0
34 -10 -9 -27 -43 -37 -74 -14 -42 -19 -51 -22 -34 -2 13 1 37 7 54 13 37 15
141 2 134 -4 -3 -11 -19 -14 -36 -9 -42 -24 -37 -32 10 -6 33 -11 40 -30 40
-27 0 -31 -9 -40 -102 -4 -37 -11 -70 -16 -73 -11 -7 -11 22 0 87 4 26 4 45
-1 42 -4 -3 -8 2 -8 10 0 9 6 16 13 16 8 0 7 3 -3 10 -9 6 -17 5 -22 -3 -6 -9
-8 -9 -8 1 0 9 -27 12 -99 12 -70 0 -101 -4 -104 -12 -4 -10 -6 -10 -6 0 -1 7
-14 12 -31 12 -28 0 -36 -11 -31 -43 1 -5 -3 -6 -9 -2 -5 3 -10 15 -10 26 0
14 -7 19 -29 19 -28 0 -28 0 -20 -42z m303 -940 c-5 -49 -4 -52 10 -34 16 19
16 19 16 -6 0 -28 -16 -46 -22 -26 -8 23 -14 -7 -8 -37 6 -30 6 -30 32 25 30
63 37 43 12 -39 -16 -55 -14 -71 9 -53 19 16 66 22 74 9 3 -6 1 -13 -5 -15 -7
-2 -12 -22 -12 -45 0 -29 3 -38 11 -30 6 6 12 19 13 29 2 10 9 20 16 22 10 4
11 -5 6 -39 -6 -41 -6 -43 8 -24 9 11 16 27 16 35 2 37 18 -19 25 -84 8 -77
21 -106 47 -106 10 0 18 -4 18 -10 0 -5 9 -19 19 -29 19 -19 19 -19 25 2 6 22
7 22 21 3 22 -29 19 -44 -21 -125 -20 -40 -34 -75 -31 -77 2 -2 16 20 30 50
15 30 32 58 37 61 8 5 15 -52 13 -112 -1 -7 3 -13 8 -13 10 0 11 6 10 80 -1
40 1 51 9 40 12 -18 13 -10 12 55 -1 38 -1 39 7 10 24 -83 27 -111 14 -124
-14 -13 -18 -51 -5 -51 4 0 13 10 20 21 14 21 14 21 33 -10 10 -17 19 -50 19
-72 0 -24 4 -38 10 -34 6 4 10 -6 10 -21 0 -22 3 -25 12 -16 18 18 30 15 20
-5 -13 -25 -22 -93 -13 -93 4 0 13 6 20 13 11 10 13 9 9 -3 -21 -62 -21 -63 1
-57 29 7 27 0 -11 -39 -37 -38 -54 -44 -38 -15 14 27 13 36 -4 22 -16 -14 -84
-10 -90 5 -7 19 -66 3 -83 -23 -9 -13 -28 -31 -42 -39 -14 -8 -17 -13 -7 -9
16 5 17 3 6 -10 -8 -10 -9 -15 -1 -15 18 0 -11 -51 -49 -86 -19 -18 -36 -29
-38 -23 -2 5 -11 2 -19 -7 -8 -8 -13 -18 -10 -21 11 -10 57 7 57 21 0 7 7 19
15 26 20 17 19 2 -5 -45 -22 -44 -21 -51 8 -36 36 19 46 12 21 -16 -13 -14
-17 -22 -10 -18 9 5 6 -3 -6 -21 -12 -16 -33 -36 -47 -44 -50 -26 -32 -32 54
-16 9 2 21 -3 27 -10 9 -9 0 -18 -43 -40 -30 -15 -59 -33 -65 -41 -7 -7 -18
-13 -26 -13 -12 0 -13 3 -4 13 6 8 8 16 5 20 -3 3 4 3 16 0 17 -4 21 -2 18 8
-8 24 -33 21 -68 -11 -18 -16 -42 -30 -53 -30 -10 0 -27 -10 -37 -22 -10 -13
-35 -32 -56 -43 -20 -11 -50 -32 -65 -47 -35 -36 -65 -39 -48 -5 6 12 19 31
28 41 15 18 15 19 -1 13 -20 -7 -25 8 -7 19 8 5 8 9 -1 14 -8 5 2 18 28 38 21
17 42 29 46 25 3 -4 18 4 33 18 14 13 23 18 19 12 -4 -7 -2 -13 4 -13 7 0 9
-7 6 -17 -6 -15 -4 -15 14 2 12 11 20 13 20 6 0 -7 4 -9 10 -6 5 3 8 24 6 45
-3 31 0 40 14 45 16 5 76 65 65 65 -13 0 -62 -30 -74 -44 -8 -9 -20 -16 -29
-16 -8 0 -32 -16 -54 -36 -44 -39 -59 -40 -33 0 9 14 14 29 11 34 -3 6 0 15 8
21 7 6 16 25 20 41 3 17 14 33 23 37 10 4 27 16 39 27 11 12 29 26 39 31 10 6
16 16 14 23 -2 7 -20 -3 -42 -24 -21 -20 -40 -34 -43 -31 -6 6 87 97 99 97 4
0 5 -4 2 -10 -11 -18 4 -11 25 12 12 14 20 17 20 8 0 -10 4 -10 18 2 9 9 31
23 47 31 25 14 27 16 10 18 -11 1 -26 1 -32 0 -19 -3 -16 3 13 30 l27 24 -13
-25 c-11 -23 -11 -24 4 -10 9 9 13 24 10 37 -5 18 -9 19 -27 9 -12 -7 -42 -31
-66 -54 -24 -23 -63 -51 -86 -62 -34 -17 -47 -31 -64 -70 -12 -27 -21 -52 -21
-57 -1 -14 -49 -68 -55 -61 -3 3 5 23 20 43 14 21 25 42 25 46 0 15 -30 10
-36 -6 -4 -8 -12 -15 -18 -15 -11 0 -23 -18 -44 -64 -3 -5 1 -5 9 0 12 7 12 5
1 -9 -8 -9 -23 -19 -34 -23 -11 -3 -17 -12 -14 -20 6 -17 -50 -103 -73 -111
-25 -9 -61 -45 -61 -61 0 -9 15 -2 43 19 69 54 72 55 49 25 -12 -15 -19 -32
-17 -37 7 -10 -32 -32 -44 -25 -13 8 -53 -25 -47 -40 3 -7 -4 -16 -17 -20 -12
-4 -36 -22 -54 -40 -18 -19 -42 -34 -53 -34 -11 0 -23 -7 -27 -16 -5 -13 -7
-13 -14 -2 -7 10 -14 7 -31 -14 -15 -17 -39 -31 -66 -37 -24 -5 -46 -12 -50
-16 -8 -8 18 -25 38 -25 13 0 13 1 0 10 -17 11 -10 13 38 10 22 -1 42 5 55 18
12 11 34 22 49 26 16 3 27 12 25 19 -1 6 6 11 16 9 9 -2 17 3 17 11 0 12 51
57 65 57 3 0 -2 -11 -11 -25 -18 -27 -5 -35 16 -10 10 12 15 13 20 4 6 -8 13
-8 31 1 l24 13 -20 -24 c-34 -40 -59 -58 -89 -67 -16 -4 -31 -13 -33 -19 -5
-15 42 -8 69 11 25 18 42 21 33 6 -3 -5 -1 -10 4 -10 6 0 11 -4 11 -10 0 -5
-8 -10 -17 -10 -24 0 -84 -18 -103 -29 -26 -17 -3 -23 28 -7 30 16 86 11 60
-5 -8 -6 3 -9 32 -10 25 -1 35 -4 23 -6 -24 -5 -31 -22 -10 -25 32 -4 42 -3
47 2 15 16 52 43 47 34 -3 -5 2 -22 11 -37 13 -19 22 -23 32 -17 8 6 26 10 40
10 15 0 30 4 36 10 5 5 32 12 58 16 37 4 47 2 44 -8 -3 -7 -15 -12 -26 -10
-12 2 -22 -1 -22 -7 0 -5 -8 -12 -17 -14 -10 -3 0 -5 23 -6 22 0 44 2 47 5 9
9 77 11 77 2 0 -11 -34 -26 -48 -21 -15 6 -64 -36 -57 -48 7 -11 45 1 45 15 0
7 3 6 8 -2 7 -10 15 -10 37 -2 16 6 35 8 42 6 16 -7 113 13 129 25 6 5 19 7
28 3 9 -3 24 -3 33 0 15 6 15 8 3 16 -10 7 15 10 75 10 62 0 85 3 75 10 -13 8
-12 10 3 10 9 0 17 4 17 9 0 4 -23 6 -51 3 -37 -3 -54 -1 -59 9 -7 11 -19 11
-65 2 -35 -8 -64 -9 -78 -3 -21 8 -20 9 6 9 35 1 32 23 -4 31 l-24 6 25 9 c15
5 25 4 28 -3 2 -6 9 -9 16 -6 7 3 24 0 38 -5 23 -9 25 -7 21 10 -4 12 -17 22
-35 26 -19 4 -27 10 -24 20 8 19 -36 34 -100 36 -52 1 -52 1 -37 24 13 19 13
23 2 24 -8 0 -4 5 8 11 12 6 24 19 27 30 3 14 10 19 21 14 9 -3 13 -2 10 4 -6
10 5 13 35 11 10 0 11 1 2 5 -6 3 -9 10 -6 16 12 20 -50 -2 -68 -23 -10 -12
-29 -22 -43 -24 -15 -1 -39 -15 -55 -30 -16 -15 -33 -26 -39 -24 -12 5 132
114 151 114 15 1 12 27 -5 37 -13 8 -38 -22 -29 -36 3 -5 -2 -7 -10 -3 -18 6
-61 -20 -53 -33 3 -4 -8 -16 -23 -25 l-27 -18 20 23 20 23 -25 -13 c-14 -7
-32 -19 -41 -27 -20 -17 -69 -27 -69 -14 0 13 28 33 32 22 1 -5 19 2 38 15 29
20 31 24 13 24 -11 0 -26 -7 -33 -15 -7 -8 -16 -13 -20 -10 -5 3 -11 1 -15 -5
-3 -5 -11 -10 -16 -10 -16 0 0 20 24 31 12 5 37 18 55 29 18 11 37 18 41 15 5
-2 17 5 27 16 16 18 64 44 117 62 10 4 15 11 12 17 -3 5 1 10 9 10 9 0 16 -5
16 -11 0 -6 8 -8 19 -4 20 6 47 -18 37 -34 -4 -5 4 -12 16 -14 16 -3 12 -5
-12 -6 -43 -2 -80 -11 -80 -20 0 -4 17 -5 38 -3 35 4 36 3 17 -11 -11 -9 -17
-19 -13 -23 4 -4 14 -2 22 5 15 13 94 7 110 -9 7 -7 5 -10 -5 -10 -10 -1 -9
-3 4 -11 14 -8 16 -14 7 -24 -7 -8 -9 -19 -5 -25 3 -5 -1 -10 -9 -10 -9 0 -16
-4 -16 -10 0 -5 9 -10 19 -10 11 0 27 -3 36 -7 15 -5 15 -8 -6 -24 l-24 -19
23 -6 c12 -4 22 -13 22 -20 0 -9 12 -14 36 -14 21 0 33 -4 29 -10 -3 -5 -1
-10 5 -10 7 0 10 6 7 14 -10 26 14 37 43 19 29 -17 56 -53 40 -53 -5 0 -10 -7
-10 -15 0 -13 -19 -19 -57 -18 -21 1 -15 -11 17 -32 16 -11 30 -23 30 -27 0
-5 9 -8 20 -8 11 0 20 5 20 11 0 5 -4 8 -9 5 -5 -3 -17 2 -28 12 -10 9 -17 16
-15 15 2 -1 17 3 32 9 19 6 27 15 23 24 -3 9 2 14 17 14 11 0 19 -4 15 -10 -3
-5 7 -15 21 -23 l28 -14 -37 -18 c-20 -9 -37 -21 -37 -26 0 -14 16 -11 29 5
19 23 80 48 101 41 11 -4 18 -11 15 -16 -7 -10 2 -11 54 -11 l34 1 -44 -27
c-41 -25 -42 -27 -19 -30 14 -2 30 -10 37 -19 7 -9 19 -12 32 -8 16 5 20 3 15
-9 -5 -12 1 -16 24 -16 18 0 32 -6 36 -16 4 -11 13 -14 27 -11 16 4 18 3 8 -9
-6 -8 -27 -14 -45 -14 -19 0 -34 -4 -34 -10 0 -5 -9 -10 -20 -10 -25 0 -26 18
-2 37 15 13 7 14 -68 9 -47 -3 -96 -9 -109 -12 -18 -5 -22 -4 -16 5 5 9 -2 12
-26 11 -87 -5 -129 0 -129 15 0 9 -9 15 -24 15 -14 0 -28 5 -31 10 -7 11 9 13
54 4 17 -4 28 -10 26 -15 -11 -17 13 -17 65 1 30 11 47 19 38 20 -23 0 -24 20
-1 20 12 0 14 3 6 11 -7 7 -24 8 -43 4 -24 -5 -29 -10 -19 -16 8 -5 10 -9 4
-9 -5 0 -3 -5 5 -11 12 -9 11 -10 -5 -4 -11 3 -46 12 -78 20 -33 8 -64 21 -71
30 -31 43 -195 5 -188 -43 2 -16 -2 -22 -15 -22 -10 0 -27 -8 -38 -16 -19 -15
-18 -16 15 -13 56 5 112 -11 105 -28 -4 -12 0 -14 16 -10 12 3 31 1 42 -5 14
-7 22 -7 27 2 5 8 15 10 26 6 16 -6 16 -8 4 -16 -12 -8 -11 -10 5 -11 11 -1
30 -1 42 0 27 2 83 -25 83 -40 0 -6 -6 -9 -14 -6 -8 3 -16 2 -18 -2 -2 -5 -14
-12 -28 -16 -24 -7 -24 -7 -5 8 19 15 19 16 -10 21 -17 4 -50 11 -75 17 -25 5
-75 14 -110 18 -36 5 -50 9 -32 10 37 1 42 15 10 26 -44 13 -138 17 -168 7
-16 -6 -30 -7 -30 -2 0 4 -13 3 -29 -3 -34 -13 -31 -30 4 -21 17 4 26 0 34
-14 8 -15 8 -22 -2 -26 -6 -3 16 -4 51 -2 51 3 61 2 52 -9 -8 -10 -7 -14 2
-18 8 -4 7 -6 -4 -6 -16 -1 -23 -12 -19 -34 2 -12 -224 -3 -240 10 -15 12
-120 34 -131 27 -4 -3 -21 2 -38 11 -29 15 -31 14 -52 -10 -12 -14 -32 -25
-46 -25 -19 0 -23 -4 -19 -20 3 -12 -1 -21 -12 -24 -29 -9 -216 0 -213 10 2 5
14 8 27 6 14 -2 25 1 25 7 0 6 -4 11 -10 11 -5 0 -10 5 -10 10 0 6 12 10 26
10 14 0 23 -4 19 -10 -3 -6 4 -10 17 -10 13 0 29 9 36 20 11 19 10 20 -23 20
-19 0 -34 3 -34 8 3 19 -2 23 -17 11 -13 -10 -17 -10 -24 1 -5 8 -6 18 -4 22
3 4 0 8 -5 8 -6 0 -11 -9 -11 -19 0 -26 -46 -21 -66 8 -8 11 -26 21 -38 21
-28 0 -80 39 -56 41 8 0 2 5 -15 10 -16 5 -47 7 -67 3 -21 -3 -43 -2 -50 3 -9
5 -1 10 22 13 25 4 35 10 34 23 -2 18 1 19 55 21 45 1 52 24 12 39 -36 13 -40
32 -10 40 19 5 19 7 3 25 -10 12 -24 18 -36 14 -11 -3 -24 1 -29 9 -7 11 -9 9
-9 -7 0 -28 -31 -54 -66 -57 -39 -3 -38 23 1 42 17 7 39 21 50 31 11 10 30 21
42 24 23 7 57 52 56 76 0 19 17 41 27 35 4 -2 19 9 34 26 21 23 25 34 16 43
-8 10 -6 16 7 21 10 5 24 7 31 6 6 -1 12 2 12 8 0 5 9 7 20 4 12 -3 20 0 20 8
0 7 3 9 7 6 3 -4 -8 -25 -26 -47 -17 -22 -27 -40 -21 -40 20 0 81 38 71 45
-17 10 -13 25 7 25 10 0 23 5 30 12 9 9 12 9 12 -2 0 -9 6 -8 21 6 17 15 22
16 29 4 11 -18 6 -25 -43 -62 -32 -23 -36 -28 -17 -23 14 4 27 11 30 15 3 4
15 12 27 19 13 6 30 26 39 44 21 42 63 87 92 98 12 5 22 14 22 20 0 8 -6 7
-17 -2 -16 -12 -17 -12 -6 2 7 9 10 18 7 21 -2 3 9 17 26 31 28 24 28 26 8 24
-13 -2 -33 -8 -45 -15 -31 -17 -97 -27 -88 -12 4 6 19 16 33 22 15 6 22 12 15
15 -15 5 -5 33 12 33 7 0 18 6 24 14 6 7 22 11 36 8 18 -3 27 1 32 14 4 11 14
25 22 32 14 10 13 11 -3 5 -13 -4 0 20 40 71 53 69 60 75 65 54 5 -20 7 -21
14 -6 4 10 11 15 16 12 5 -3 4 -15 -2 -27 -10 -18 -7 -17 14 5 14 15 28 42 32
60 4 18 14 46 22 61 8 16 16 50 18 75 l4 47 -20 -43 c-10 -24 -16 -49 -12 -55
3 -7 -3 -4 -14 6 -20 18 -22 18 -37 -5 -93 -131 -100 -140 -108 -119 -9 26
-28 27 -28 2 0 -11 -8 -26 -18 -33 -10 -7 -27 -26 -37 -43 l-19 -30 23 20 24
20 -12 -22 c-6 -13 -8 -23 -4 -23 4 0 -12 -18 -36 -40 -24 -22 -45 -40 -47
-40 -3 0 2 13 31 85 5 11 7 24 6 29 -1 4 6 14 16 22 22 16 10 18 -20 3 -19
-11 -19 -10 4 18 13 17 27 29 30 27 10 -5 69 42 62 50 -4 3 -19 -6 -35 -21
-15 -15 -28 -21 -28 -14 0 7 -5 9 -12 5 -7 -4 -2 5 11 19 14 15 26 25 29 23 2
-3 23 13 45 35 23 21 45 39 49 39 4 0 8 18 8 40 0 22 -4 40 -10 40 -5 0 -10
-8 -10 -17 0 -10 -9 -29 -19 -42 -18 -24 -18 -23 -17 62 0 47 -2 89 -7 93 -4
4 -19 -3 -33 -17 -18 -16 -28 -20 -31 -11 -7 18 -31 15 -37 -5 -3 -10 -3 6 0
35 7 72 13 85 38 78 22 -5 52 26 41 44 -3 4 2 16 11 25 14 13 19 14 25 3 5 -8
3 -16 -6 -21 -18 -10 -8 -38 11 -30 8 3 14 -1 14 -8 0 -9 3 -10 11 -2 7 7 7
22 -1 51 -6 23 -8 53 -4 67 5 20 3 24 -10 19 -9 -3 -16 -13 -16 -21 0 -8 -5
-11 -11 -7 -8 4 -8 9 0 17 6 6 11 19 11 29 0 9 6 21 13 25 23 14 46 61 53 105
4 24 14 57 22 73 14 29 14 29 -3 15 -17 -13 -18 -13 -10 0 4 8 13 21 18 28 6
7 11 25 12 40 1 15 5 36 9 47 4 11 -1 7 -10 -10 -10 -18 -19 -25 -22 -17 -3
10 -7 10 -18 1 -15 -13 -17 -9 -8 15 3 9 10 13 15 10 5 -3 14 7 19 21 13 34
13 35 -2 30 -15 -6 -15 66 0 130 9 39 9 40 20 15 l11 -25 0 26 c1 22 8 39 17
39 2 0 1 -24 -2 -52z m-3669 -2091 c11 -3 22 -6 25 -8 9 -4 24 -7 43 -8 12 -1
16 -5 11 -13 -6 -10 -5 -10 7 -1 12 10 22 8 47 -7 18 -11 41 -20 52 -20 10 0
22 -4 25 -10 3 -5 1 -10 -4 -10 -6 0 -11 -7 -11 -16 0 -9 5 -12 13 -8 6 4 9 4
5 -1 -4 -4 -3 -16 2 -26 10 -17 8 -17 -25 -4 -46 20 -61 20 -45 0 13 -16 3
-20 -24 -9 -13 5 -14 9 -4 21 9 11 9 16 -2 23 -7 4 -10 15 -7 24 8 20 0 20
-19 1 -9 -8 -12 -15 -8 -15 4 0 5 -3 1 -6 -10 -11 -67 30 -67 48 0 13 -8 18
-26 18 -14 0 -23 4 -19 10 3 5 -9 14 -27 19 l-33 11 35 -4 c19 -2 44 -7 55 -9z
m3371 -99 c40 -19 42 -22 26 -35 -15 -13 -14 -14 13 -8 17 4 46 10 65 12 34 5
35 5 17 -15 -15 -16 -15 -20 -4 -25 8 -3 19 -1 25 5 7 7 16 6 30 -1 11 -6 25
-11 31 -11 18 0 12 18 -6 24 -10 3 5 3 32 0 28 -3 58 -7 68 -10 20 -6 23 -24
5 -24 -7 0 -5 -5 5 -11 14 -8 16 -14 6 -25 -9 -12 -14 -11 -32 1 -25 17 -47
20 -47 5 0 -5 7 -10 15 -10 18 0 75 -40 75 -52 0 -5 -9 -4 -19 2 -25 13 -51
13 -51 0 0 -5 9 -10 19 -10 27 0 35 -17 11 -23 -11 -3 -20 -1 -20 4 0 5 -7 9
-15 9 -11 0 -14 -7 -9 -25 5 -21 3 -24 -12 -19 -14 5 -10 -2 11 -24 17 -17 41
-42 54 -56 30 -31 23 -44 -9 -16 -13 11 -27 20 -32 20 -5 0 -7 4 -3 9 3 5 1
12 -4 15 -5 3 -11 -1 -15 -9 -3 -8 -2 -15 2 -15 4 0 12 -10 17 -22 6 -13 24
-29 40 -37 36 -16 65 -40 65 -54 0 -5 -11 -2 -25 7 -13 9 -31 16 -40 16 -8 0
-15 7 -15 15 0 9 -9 15 -22 15 -20 0 -21 -1 -3 -20 10 -11 15 -20 12 -20 -4 0
-22 9 -42 20 -47 26 -53 25 -25 -5 13 -14 18 -25 12 -25 -21 0 -13 -16 14 -29
15 -6 24 -14 21 -17 -3 -4 -19 3 -35 15 -17 12 -38 21 -48 21 -9 0 -25 7 -35
16 -13 12 -22 13 -36 6 -17 -10 -17 -11 2 -18 11 -4 32 -18 48 -32 15 -14 27
-20 27 -13 0 8 9 7 29 -5 33 -19 32 -41 0 -23 -30 16 -35 2 -8 -20 28 -23 39
-26 39 -9 0 6 2 9 4 7 2 -2 4 -8 4 -12 0 -4 8 -19 17 -33 18 -28 12 -46 -8
-23 -6 8 -31 28 -54 43 -24 16 -43 33 -43 38 0 4 -11 14 -25 20 -14 6 -25 17
-25 24 0 7 -9 19 -21 27 -14 10 -17 17 -9 22 6 4 9 13 6 21 -3 8 1 14 9 14 20
0 19 10 -2 27 -10 8 -12 12 -5 8 6 -3 12 -2 12 3 0 5 -8 12 -17 15 -10 2 -27
8 -38 13 -18 7 -19 6 -5 -11 8 -10 15 -31 15 -47 0 -24 -4 -28 -28 -28 -20 0
-30 6 -34 20 -3 11 -10 20 -17 20 -6 0 -17 9 -24 21 -12 19 -11 20 7 14 12 -4
21 -2 21 4 0 6 -10 11 -22 11 -13 0 -30 5 -38 11 -13 9 -12 10 3 5 27 -8 20 9
-9 23 -28 12 -44 7 -44 -15 0 -15 -9 -17 -34 -8 -13 5 -14 8 -1 20 7 8 23 18
34 22 21 7 21 7 -2 30 -41 41 -80 72 -88 72 -5 0 -9 5 -9 11 0 6 -11 20 -25
31 -26 20 -25 38 1 38 9 0 22 6 29 14 12 11 10 15 -10 24 -13 6 -28 19 -33 29
-9 17 -3 18 70 21 48 2 84 -1 93 -8 15 -12 68 -3 59 11 -9 15 17 10 62 -13z
m-268 -295 c-4 -23 36 -44 71 -38 20 4 22 3 7 -3 -13 -6 -16 -11 -8 -16 6 -3
9 -13 6 -21 -4 -9 1 -18 11 -22 17 -6 17 -7 1 -18 -15 -11 -15 -13 -1 -19 9
-3 13 -2 10 3 -3 6 3 14 12 20 17 10 16 11 -5 17 l-23 7 21 14 c12 8 28 12 38
8 15 -6 15 -8 -3 -16 -18 -9 -18 -9 3 -5 23 4 82 -22 82 -36 0 -5 6 -8 14 -8
7 0 21 -11 30 -25 9 -14 29 -28 44 -31 15 -4 46 -21 69 -38 23 -17 54 -39 68
-49 14 -10 25 -26 25 -37 0 -10 5 -22 10 -25 6 -4 8 -11 5 -16 -4 -5 1 -12 9
-15 9 -3 16 -12 16 -20 0 -8 7 -14 15 -14 8 0 15 -5 15 -11 0 -10 -13 -5 -38
15 -8 5 -23 11 -33 13 -11 2 -31 10 -44 19 -23 15 -25 15 -25 0 0 -9 -6 -16
-14 -16 -9 0 -12 -7 -9 -20 3 -11 10 -19 17 -18 6 1 25 -5 41 -15 17 -9 25
-16 20 -17 -6 0 -21 7 -33 16 -23 16 -30 6 -10 -14 9 -9 7 -12 -10 -12 -20 0
-21 -3 -11 -21 10 -19 9 -20 -11 -14 -24 8 -78 62 -113 112 -12 18 -27 33 -33
33 -19 0 -47 27 -40 38 5 9 14 7 32 -4 13 -9 24 -12 24 -6 0 6 -5 14 -10 17
-6 4 -8 11 -5 16 4 5 -5 9 -19 9 -14 0 -28 5 -32 11 -4 8 -9 7 -15 -2 -4 -8
-3 -20 4 -28 13 -17 -86 52 -118 81 -19 18 -19 18 0 18 11 0 40 -9 64 -20 49
-23 55 -24 47 -11 -4 5 0 11 6 14 20 7 1 21 -31 23 -53 4 -96 17 -108 33 -17
22 -16 29 5 34 14 3 12 6 -8 14 -20 9 -28 7 -41 -7 -15 -14 -23 -15 -63 -6
-41 9 -43 12 -24 19 13 5 35 7 50 4 17 -2 29 2 33 11 3 8 11 12 18 9 8 -3 20
-1 28 4 10 6 5 10 -19 15 -22 5 -38 16 -47 35 -19 36 -19 37 8 42 12 2 23 5
25 6 2 0 2 -7 0 -16z m1034 -221 c43 -59 101 -105 96 -77 -5 27 17 29 30 3 7
-13 21 -36 31 -53 26 -41 27 -68 1 -35 -16 20 -22 22 -29 11 -7 -11 -12 -8
-26 13 -20 31 -32 28 -15 -3 7 -14 7 -21 0 -21 -23 0 -8 -16 30 -33 41 -18 55
-33 20 -22 -25 8 -25 1 1 -41 11 -19 19 -38 17 -43 -5 -13 -98 32 -103 50 -4
11 -13 15 -24 12 -25 -6 -104 44 -94 60 4 7 0 7 -10 -2 -17 -13 -23 -6 -18 22
0 4 -3 7 -9 7 -11 0 -50 72 -50 92 1 18 50 -39 50 -58 0 -8 6 -13 13 -11 6 1
11 -4 10 -10 -2 -7 3 -13 11 -13 7 0 21 -10 30 -22 l17 -23 -12 23 c-22 48 13
34 40 -16 15 -29 27 -28 26 2 0 14 -13 39 -30 57 -20 21 -24 30 -12 26 9 -4
17 -2 17 5 0 20 -82 163 -121 210 -22 26 -39 50 -39 54 0 11 110 -108 152
-164z m-1059 4 c9 -7 17 -20 17 -28 0 -9 8 -22 17 -29 15 -12 16 -12 10 4 -7
19 5 22 31 7 9 -5 29 -14 45 -20 29 -10 32 -17 18 -39 -7 -11 -17 -12 -50 -4
-23 6 -41 9 -41 8 0 -13 14 -34 20 -30 10 6 45 -33 37 -42 -4 -3 -15 1 -24 9
-24 21 -55 26 -61 10 -3 -9 3 -13 19 -10 19 2 25 -2 27 -22 6 -52 13 -70 27
-70 8 0 15 -7 15 -15 0 -8 8 -15 18 -15 14 0 15 2 2 10 -17 11 -6 13 28 4 13
-4 22 -14 22 -25 0 -11 6 -20 13 -20 6 -1 19 -2 27 -3 9 0 15 -10 14 -23 -1
-13 4 -23 12 -23 8 0 11 6 8 15 -9 23 7 18 46 -15 31 -26 33 -29 13 -30 -12 0
-25 4 -28 10 -3 5 -22 7 -41 4 -29 -4 -36 -2 -43 18 -6 13 -10 17 -10 11 -1
-7 -7 -13 -15 -13 -8 0 -16 6 -19 13 -3 9 -7 9 -20 -1 -13 -11 -19 -10 -36 7
-12 12 -16 21 -11 21 18 0 10 21 -21 53 -17 18 -34 42 -39 55 -5 12 -16 22
-24 22 -18 0 -30 31 -15 40 6 4 8 17 5 28 -6 17 -3 19 14 15 14 -4 20 -1 20
12 0 12 -6 16 -20 12 -11 -3 -20 -1 -20 5 0 5 -4 7 -9 4 -12 -8 -8 27 4 36 6
5 6 8 -2 8 -14 0 -43 28 -43 41 0 13 42 10 63 -5z m1408 -427 c27 -23 49 -45
49 -51 0 -5 -4 -6 -10 -3 -16 10 -12 -12 5 -29 16 -15 54 -31 60 -24 3 2 -14
30 -35 61 -22 31 -38 57 -36 57 14 0 36 -14 36 -22 0 -16 63 -88 77 -88 18 0
90 -46 95 -61 2 -7 33 -15 73 -18 66 -6 67 -6 42 -20 -15 -8 -27 -17 -27 -21
0 -9 -99 -5 -130 5 -14 4 -38 21 -54 36 -17 16 -49 38 -72 50 -24 11 -46 29
-49 39 -3 11 -14 22 -24 25 -26 8 -109 85 -91 85 11 0 11 3 2 12 -7 7 -12 15
-12 20 0 15 54 -13 101 -53z m-1593 -435 c7 -23 12 -62 12 -87 0 -27 6 -52 15
-61 18 -17 19 -56 4 -108 -8 -33 -13 -75 -18 -175 -1 -13 -6 -23 -12 -23 -7 0
-9 11 -5 30 3 17 1 30 -4 30 -6 0 -10 8 -10 17 0 15 -2 14 -14 -2 -13 -18 -14
-14 -17 38 -3 39 0 58 9 62 7 2 12 22 12 44 0 22 7 46 15 55 17 17 20 42 5 51
-6 4 -7 13 -2 21 5 8 3 49 -3 90 -13 79 -6 87 13 18z m2412 41 c8 -5 8 -10 0
-20 -8 -9 -5 -14 11 -18 12 -3 18 -10 14 -16 -3 -6 2 -11 12 -11 15 0 16 -2 3
-10 -12 -8 -11 -10 8 -10 12 0 22 5 22 10 0 6 12 10 28 10 19 0 23 3 13 9 -7
5 -9 11 -4 14 6 4 21 -5 33 -18 l23 -25 -28 0 c-33 0 -23 -15 15 -24 14 -3 0
-3 -31 -1 -50 3 -56 1 -52 -14 2 -10 20 -23 39 -30 34 -12 44 -37 24 -57 -7
-7 -6 -22 5 -47 31 -74 15 -75 -54 -6 -36 36 -56 49 -69 45 -11 -4 -36 6 -66
25 -39 27 -45 34 -32 41 9 5 13 14 10 20 -5 7 -2 9 9 5 9 -3 17 -1 19 5 3 8
13 8 36 0 18 -6 32 -7 32 -3 0 19 -42 59 -67 66 -15 3 -31 12 -35 18 -4 7 -35
11 -80 10 -41 -1 -81 3 -89 8 -11 7 -8 9 11 9 14 1 39 7 55 15 31 13 163 14
185 0z m-1328 -80 c42 -83 148 -295 163 -327 9 -21 22 -38 27 -38 5 0 6 -5 3
-10 -4 -6 8 -45 25 -88 69 -164 118 -242 154 -242 26 0 51 -15 51 -31 0 -6 31
-22 68 -35 70 -23 103 -41 57 -31 -14 3 -54 12 -89 20 -96 21 -127 8 -73 -32
20 -16 24 -23 14 -29 -10 -7 -8 -23 12 -76 14 -37 32 -79 40 -94 40 -76 106
-225 101 -230 -4 -5 -29 44 -143 290 -38 83 -42 87 -82 98 -48 13 -70 10 -49
-8 58 -47 82 -71 70 -72 -7 0 -28 9 -46 20 -17 11 -47 20 -66 22 -19 1 -37 7
-41 13 -4 5 -7 -30 -7 -80 2 -181 -1 -328 -7 -323 -3 3 -5 46 -5 94 0 49 -2
103 -5 119 -5 28 -9 30 -52 32 -26 1 -79 10 -119 21 -39 11 -74 18 -77 15 -9
-10 14 -43 30 -43 13 0 76 -40 97 -62 4 -4 4 -6 1 -3 -4 3 -13 0 -19 -5 -8 -7
-20 -4 -36 9 -13 10 -44 23 -69 29 -25 5 -67 18 -93 28 -40 16 -49 16 -57 5
-5 -9 -4 -21 3 -32 8 -13 8 -21 -2 -33 -11 -13 -15 -13 -34 4 -11 11 -24 20
-28 20 -4 0 -20 5 -36 11 -37 15 -73 20 -73 9 0 -4 12 -13 28 -18 15 -6 39
-22 54 -36 15 -15 41 -29 58 -32 16 -4 30 -10 30 -15 0 -4 9 -10 20 -14 32
-10 104 -75 105 -95 1 -15 -11 -8 -54 28 -65 55 -136 91 -164 84 -4 -1 -18 4
-30 13 -12 8 -30 15 -40 15 -30 0 -94 38 -100 59 -3 12 -13 24 -24 28 -10 4
-26 18 -37 31 -12 15 -26 22 -37 19 -11 -3 -22 -1 -25 4 -3 5 1 9 8 9 7 1 2 7
-12 15 -19 11 -21 14 -7 15 9 0 17 4 17 9 0 17 31 21 53 7 44 -27 106 -1 101
43 -2 14 -1 19 2 9 3 -9 12 -19 21 -22 12 -5 14 -1 9 18 -3 14 -2 28 4 31 5 3
10 0 10 -8 0 -8 9 -22 19 -31 16 -15 23 -16 43 -5 13 6 26 17 30 23 4 6 9 4
14 -7 3 -9 11 -17 16 -17 6 0 8 7 4 15 -3 8 -2 15 3 15 4 0 6 11 3 25 -3 16 0
25 8 25 24 0 -15 240 -80 494 -24 93 -21 112 4 29 10 -32 24 -72 32 -90 8 -17
14 -37 14 -45 0 -7 5 -20 11 -28 7 -11 9 -6 7 22 -4 57 9 56 26 -3 19 -61 20
-79 6 -79 -5 0 -10 12 -10 27 0 14 -2 24 -4 22 -5 -5 11 -272 20 -326 3 -24
10 -43 15 -43 5 0 5 8 2 17 -6 15 -2 14 20 -4 15 -11 35 -19 45 -16 10 2 44
-7 76 -21 64 -28 102 -35 46 -8 -38 19 -100 77 -100 94 0 6 13 8 34 5 l34 -5
-20 36 c-12 20 -15 31 -8 25 8 -7 20 -13 27 -13 23 0 1 226 -28 281 -9 17 6
48 17 36 10 -10 24 -117 29 -226 2 -46 6 -84 7 -85 2 -1 16 -10 33 -21 31 -19
85 -28 85 -13 0 4 -4 8 -9 8 -5 0 -11 7 -15 15 -4 12 0 14 19 9 29 -7 31 -2 8
32 l-16 26 36 -21 c29 -16 37 -18 37 -6 0 7 -5 17 -11 21 -8 4 -7 9 2 16 11 7
10 8 -4 6 -11 -2 -24 8 -34 24 -15 23 -15 28 -1 41 30 30 -5 208 -38 195 -10
-3 -24 79 -17 102 4 12 3 12 -5 1 -7 -10 -11 -10 -17 -1 -4 7 -2 16 4 20 12 7
-15 91 -44 137 -8 11 -20 43 -26 70 -7 26 -20 65 -30 85 -21 41 -23 48 -11 48
4 0 21 -27 36 -60 16 -33 31 -59 33 -57 2 2 -6 33 -17 68 -11 35 -20 65 -20
67 0 9 49 -57 62 -83z m328 63 c10 -13 18 -27 19 -33 1 -5 11 -13 21 -17 10
-4 24 -16 30 -27 9 -17 8 -20 -5 -15 -11 5 -13 2 -9 -10 7 -19 31 -21 36 -4 3
7 16 -5 30 -27 32 -52 54 -69 74 -61 23 9 64 -20 64 -45 0 -15 -5 -19 -15 -15
-8 3 -15 2 -15 -3 0 -15 13 -21 25 -11 9 7 17 5 26 -7 11 -13 11 -17 2 -20
-21 -7 -15 -23 12 -33 16 -6 25 -17 25 -31 0 -20 -1 -21 -22 -5 -33 23 -48 29
-56 22 -8 -8 37 -96 49 -96 5 0 9 -4 9 -10 0 -20 -24 -9 -57 25 -18 19 -26 32
-18 29 13 -5 15 -1 9 22 -8 34 -22 54 -37 54 -6 0 -19 8 -29 17 -12 11 -22 13
-28 7 -7 -7 0 -24 20 -52 33 -46 38 -73 16 -94 -7 -8 -17 -24 -21 -37 -6 -18
-9 -21 -16 -10 -6 11 -9 11 -9 1 0 -7 11 -17 25 -22 14 -5 25 -14 25 -19 0 -6
6 -8 13 -6 17 7 27 -3 64 -57 29 -43 30 -46 10 -39 -13 5 -21 16 -19 26 2 9
-1 14 -7 11 -5 -4 -16 3 -25 15 -17 25 -36 17 -36 -14 0 -19 -3 -17 -30 13
-16 19 -29 31 -30 25 0 -21 -35 42 -36 68 -1 23 1 26 13 15 13 -10 15 -9 11 7
-2 11 -11 19 -19 17 -10 -1 -23 13 -34 35 -9 21 -24 51 -31 66 -8 16 -14 39
-14 52 0 12 -9 33 -19 46 l-20 24 6 -25 c4 -19 -2 -15 -25 18 -16 25 -28 52
-25 62 3 10 -1 28 -8 41 -6 13 -13 42 -14 66 -1 35 1 41 12 31 8 -6 23 -29 34
-50 13 -25 26 -38 39 -38 11 0 20 -4 20 -8 0 -5 17 -28 38 -52 20 -24 31 -41
25 -36 -7 4 -13 2 -13 -3 0 -6 7 -11 15 -11 29 0 10 61 -49 153 -43 68 -58 97
-50 97 3 0 14 -10 24 -22z m-480 -375 c0 -13 5 -42 11 -66 10 -36 9 -48 -6
-80 -14 -29 -16 -53 -12 -110 3 -39 3 -62 0 -49 -8 37 -20 25 -29 -30 l-9 -53
-3 65 c-3 46 -6 59 -12 45 -7 -17 -9 -14 -9 13 -1 20 3 31 12 30 17 -4 10 90
-9 119 -8 12 -14 25 -14 28 0 8 24 1 32 -10 4 -5 8 3 8 20 0 31 14 25 24 -10
3 -11 3 3 1 30 -3 28 -8 75 -11 105 l-5 55 15 -40 c9 -22 16 -50 16 -62z m496
-2691 c5 -5 28 -15 52 -22 31 -10 42 -18 42 -33 0 -16 3 -17 15 -7 10 8 28 10
52 5 66 -12 173 -47 188 -61 7 -8 18 -14 24 -14 6 0 11 -5 11 -12 0 -9 3 -9
11 -1 13 13 69 -2 69 -18 0 -5 5 -9 10 -9 6 0 22 -7 36 -17 32 -21 17 -31 -39
-27 -94 7 -134 6 -177 -5 -25 -6 -64 -11 -87 -11 -23 0 -54 -5 -70 -12 -15 -6
-34 -10 -41 -9 -7 1 -25 -5 -40 -13 -35 -19 -143 -56 -166 -56 -9 0 -28 -7
-42 -16 -27 -19 -46 -10 -49 23 -3 33 -37 87 -91 141 -33 32 -54 62 -54 75 1
20 2 20 13 5 9 -11 22 -14 42 -10 27 5 29 4 16 -11 -8 -10 -9 -17 -3 -17 6 0
14 5 17 10 3 6 17 10 31 10 15 0 24 6 24 16 0 10 6 14 14 11 21 -8 25 1 16 34
-10 34 -6 35 37 9 18 -10 35 -15 38 -10 3 6 15 6 30 0 21 -8 25 -7 26 10 1 11
3 25 4 30 1 6 3 12 4 15 2 8 26 6 37 -3z"/>
<path d="M4130 3305 c27 -63 91 -258 115 -350 10 -38 22 -75 27 -82 13 -16 97
-48 105 -39 4 4 -21 62 -55 129 -34 68 -62 128 -62 135 0 24 -88 189 -119 222
l-32 35 21 -50z"/>
<path d="M5255 4739 c-33 -3 -54 -6 -47 -7 6 -1 12 -11 12 -22 0 -11 5 -20 11
-20 6 0 8 -9 4 -20 -5 -17 1 -24 37 -40 24 -11 51 -20 61 -20 10 0 17 -5 15
-12 -7 -19 172 -101 187 -86 3 3 -17 23 -44 46 -41 35 -97 112 -73 100 4 -2
24 -12 45 -23 28 -14 40 -16 49 -7 8 8 0 16 -36 32 -26 11 -56 20 -66 20 -10
0 -22 5 -25 10 -3 6 -1 10 6 10 20 0 -2 16 -41 32 -23 8 -56 11 -95 7z"/>
<path d="M5750 4635 c0 -2 14 -11 30 -20 45 -23 38 -39 -15 -32 -38 6 -46 4
-55 -14 -8 -14 -17 -18 -31 -14 -39 13 -19 -29 43 -87 57 -54 65 -58 109 -58
26 0 51 5 55 11 8 14 -36 51 -52 45 -17 -6 -27 66 -11 76 12 8 23 7 62 -7 11
-4 1 11 -24 33 -30 27 -42 45 -38 56 5 13 -1 16 -33 16 -22 0 -40 -2 -40 -5z"/>
<path d="M5170 1901 c0 -4 7 -17 16 -29 14 -21 14 -22 -10 -22 -36 0 -74 -54
-72 -102 2 -39 -7 -50 -18 -23 -6 17 -26 20 -26 4 0 -12 41 -59 52 -59 4 0 5
7 2 15 -5 11 1 15 19 15 23 0 27 5 33 45 6 43 24 73 24 41 0 -8 5 -27 11 -43
l11 -28 10 28 c6 17 17 27 29 27 22 0 26 25 5 33 -12 5 -13 11 -3 37 16 42 1
64 -46 66 -21 0 -37 -2 -37 -5z"/>
</g>
</svg>
